<?xml version="1.0" encoding="utf-8"?>
<!-- Generator: Adobe Illustrator 21.1.0, SVG Export Plug-In . SVG Version: 6.00 Build 0)  -->
<svg version="1.1" id="Layer_1" xmlns="http://www.w3.org/2000/svg" xmlns:xlink="http://www.w3.org/1999/xlink" x="0px" y="0px"
	 viewBox="0 0 150 150" style="enable-background:new 0 0 150 150;" xml:space="preserve">
<style type="text/css">
	.st0{fill:#FFFFFF;stroke:#000000;stroke-miterlimit:10;}
	.st1{fill:none;stroke:#000000;stroke-miterlimit:10;}
	.st2{fill:#4A494A;}
	.st3{fill:#181818;}
	.st4{fill:#FED137;}
	.st5{fill:#A09F9F;}
	.st6{fill:#9B5D5E;}
</style>
<g>
	<path class="st4" d="M58.7,123.5l-6-9.2l-5.5-8.4l-6-9.2l9.2-6L62.3,83c1.1-0.7,2.6-0.4,3.3,0.7l3.6,5.5c0.7,1.1,0.4,2.6-0.7,3.3
		l-11.8,7.7l5.3,8.1l13.8-9l6,9.2l-13.8,9l5.4,8.3l11.8-7.7c1.1-0.7,2.6-0.4,3.3,0.7l2.9,4.5l4.3-2.8l-4.3-6.5l18.9-12.4l-21.5-0.8
		c-1.2,0-2.3-0.6-2.9-1.6c-0.6-1-0.8-2.2-0.3-3.3l7.9-20L74.7,88.3l-6.1-9.4l34.8-22.8c1.6-1,3.7-0.6,4.7,1l5.7,8.7
		c0.7,1.1,0.7,2.4,0.1,3.5l-10,18l20.7-1.7c1.2-0.1,2.4,0.5,3.1,1.5l5.7,8.7c0,0,0,0,0,0l6.9-4.5L85.2,6.9L14,53.4
		c-4.5,2.9-5.7,8.9-2.8,13.4L61,143.1l7.4-4.8l-4.2-6.4L58.7,123.5z"/>
</g>
</svg>
